{
    "patcher": {
        "fileversion": 1,
        "appversion": {
            "major": 9,
            "minor": 1,
            "revision": 4,
            "architecture": "x64",
            "modernui": 1
        },
        "classnamespace": "box",
        "rect": [ 59.0, 81.0, 1000.0, 780.0 ],
        "boxes": [
            {
                "box": {
                    "id": "obj-1",
                    "maxclass": "newobj",
                    "numinlets": 1,
                    "numoutlets": 2,
                    "outlettype": [ "", "" ],
                    "patching_rect": [ 180.0, 220.0, 200.0, 22.0 ],
                    "saved_object_attributes": {
                        "autostart": 0,
                        "defer": 0,
                        "node_bin_path": "",
                        "npm_bin_path": "",
                        "watch": 0
                    },
                    "text": "node.script @file rgb_sonification.js",
                    "textfile": {
                        "text": "const maxAPI = require('max-api');\n\nmaxAPI.addHandlers({\n  rgb: (r, g, b) => {\n    // Rileva automaticamente se Max sta inviando valori float [0.0 - 1.0] o interi [0 - 255]\n    let isNormalized = (r <= 1.0 && g <= 1.0 && b <= 1.0);\n    \n    // Se sono già normalizzati li usiamo direttamente, altrimenti li dividiamo per 255\n    let normR = isNormalized ? r : r / 255;\n    let normG = isNormalized ? g : g / 255;\n    let normB = isNormalized ? b : b / 255;\n\n    // Sicurezza: vincola i valori nel range matematico corretto [0.0 - 1.0]\n    normR = Math.min(Math.max(normR, 0), 1);\n    normG = Math.min(Math.max(normG, 0), 1);\n    normB = Math.min(Math.max(normB, 0), 1);\n    \n    // RGB Sonification Framework (Greco, 2026)\n    // Moltiplichiamo correttamente per l'intera escursione di frequenza desiderata\n    let red_freq = 60 + normR * 200;       // Registro Bassi: da 60Hz a 260Hz\n    let green_freq = 300 + normG * 500;   // Registro Medi: da 300Hz a 800Hz\n    let blue_freq = 1000 + normB * 2000;  // Registro Alti: da 1000Hz a 3000Hz\n    \n    // Invia le 3 frequenze distinte all'unpack della patch\n    maxAPI.outlet(red_freq, green_freq, blue_freq);\n  }\n});",
                        "flags": 2,
                        "embed": 1,
                        "autowatch": 0
                    }
                }
            },
            {
                "box": {
                    "id": "obj-2",
                    "maxclass": "message",
                    "numinlets": 2,
                    "numoutlets": 1,
                    "outlettype": [ "" ],
                    "patching_rect": [ 50.0, 140.0, 64.0, 22.0 ],
                    "text": "script start"
                }
            },
            {
                "box": {
                    "id": "obj-3",
                    "maxclass": "message",
                    "numinlets": 2,
                    "numoutlets": 1,
                    "outlettype": [ "" ],
                    "patching_rect": [ 50.0, 170.0, 64.0, 22.0 ],
                    "text": "script stop"
                }
            },
            {
                "box": {
                    "id": "obj-4",
                    "maxclass": "message",
                    "numinlets": 2,
                    "numoutlets": 1,
                    "outlettype": [ "" ],
                    "patching_rect": [ 50.0, 200.0, 67.0, 22.0 ],
                    "text": "script open"
                }
            },
            {
                "box": {
                    "id": "obj-5",
                    "maxclass": "swatch",
                    "numinlets": 3,
                    "numoutlets": 2,
                    "outlettype": [ "", "float" ],
                    "parameter_enable": 0,
                    "patching_rect": [ 180.0, 50.0, 200.0, 100.0 ],
                    "saturation": 1.0
                }
            },
            {
                "box": {
                    "id": "obj-6",
                    "maxclass": "newobj",
                    "numinlets": 1,
                    "numoutlets": 1,
                    "outlettype": [ "" ],
                    "patching_rect": [ 180.0, 170.0, 73.0, 22.0 ],
                    "text": "prepend rgb"
                }
            },
            {
                "box": {
                    "id": "obj-7",
                    "maxclass": "newobj",
                    "numinlets": 1,
                    "numoutlets": 4,
                    "outlettype": [ "float", "float", "float", "float" ],
                    "patching_rect": [ 180.0, 270.0, 130.0, 22.0 ],
                    "text": "unpack 0. 0. 0. 0."
                }
            },
            {
                "box": {
                    "id": "obj-8",
                    "maxclass": "newobj",
                    "numinlets": 2,
                    "numoutlets": 1,
                    "outlettype": [ "signal" ],
                    "patching_rect": [ 180.0, 360.0, 43.0, 22.0 ],
                    "text": "cycle~"
                }
            },
            {
                "box": {
                    "id": "obj-9",
                    "maxclass": "newobj",
                    "numinlets": 2,
                    "numoutlets": 1,
                    "outlettype": [ "signal" ],
                    "patching_rect": [ 225.0, 360.0, 43.0, 22.0 ],
                    "text": "cycle~"
                }
            },
            {
                "box": {
                    "id": "obj-10",
                    "maxclass": "newobj",
                    "numinlets": 2,
                    "numoutlets": 1,
                    "outlettype": [ "signal" ],
                    "patching_rect": [ 270.0, 360.0, 43.0, 22.0 ],
                    "text": "cycle~"
                }
            },
            {
                "box": {
                    "id": "obj-11",
                    "interpinlet": 1,
                    "maxclass": "gain~",
                    "multichannelvariant": 0,
                    "numinlets": 2,
                    "numoutlets": 2,
                    "outlettype": [ "signal", "" ],
                    "parameter_enable": 0,
                    "patching_rect": [ 180.0, 410.0, 133.0, 50.0 ]
                }
            },
            {
                "box": {
                    "id": "obj-12",
                    "maxclass": "ezdac~",
                    "numinlets": 2,
                    "numoutlets": 0,
                    "patching_rect": [ 180.0, 490.0, 45.0, 45.0 ]
                }
            },
            {
                "box": {
                    "format": 6,
                    "id": "obj-13",
                    "maxclass": "flonum",
                    "numinlets": 1,
                    "numoutlets": 2,
                    "outlettype": [ "", "bang" ],
                    "parameter_enable": 0,
                    "patching_rect": [ 180.0, 310.0, 40.0, 22.0 ]
                }
            },
            {
                "box": {
                    "format": 6,
                    "id": "obj-14",
                    "maxclass": "flonum",
                    "numinlets": 1,
                    "numoutlets": 2,
                    "outlettype": [ "", "bang" ],
                    "parameter_enable": 0,
                    "patching_rect": [ 225.0, 310.0, 40.0, 22.0 ]
                }
            },
            {
                "box": {
                    "format": 6,
                    "id": "obj-15",
                    "maxclass": "flonum",
                    "numinlets": 1,
                    "numoutlets": 2,
                    "outlettype": [ "", "bang" ],
                    "parameter_enable": 0,
                    "patching_rect": [ 270.0, 310.0, 40.0, 22.0 ]
                }
            },
            {
                "box": {
                    "id": "obj-18",
                    "maxclass": "newobj",
                    "numinlets": 1,
                    "numoutlets": 0,
                    "patching_rect": [ 361.0, 260.0, 122.0, 22.0 ],
                    "text": "print NODE_STATUS"
                }
            },
            {
                "box": {
                    "id": "obj-19",
                    "maxclass": "newobj",
                    "numinlets": 1,
                    "numoutlets": 0,
                    "patching_rect": [ 110.0, 270.0, 81.0, 22.0 ],
                    "text": "print OUT_JS"
                }
            }
        ],
        "lines": [
            {
                "patchline": {
                    "destination": [ "obj-18", 0 ],
                    "source": [ "obj-1", 1 ]
                }
            },
            {
                "patchline": {
                    "destination": [ "obj-19", 0 ],
                    "order": 1,
                    "source": [ "obj-1", 0 ]
                }
            },
            {
                "patchline": {
                    "destination": [ "obj-7", 0 ],
                    "order": 0,
                    "source": [ "obj-1", 0 ]
                }
            },
            {
                "patchline": {
                    "destination": [ "obj-11", 0 ],
                    "source": [ "obj-10", 0 ]
                }
            },
            {
                "patchline": {
                    "destination": [ "obj-12", 1 ],
                    "order": 0,
                    "source": [ "obj-11", 0 ]
                }
            },
            {
                "patchline": {
                    "destination": [ "obj-12", 0 ],
                    "order": 1,
                    "source": [ "obj-11", 0 ]
                }
            },
            {
                "patchline": {
                    "destination": [ "obj-8", 0 ],
                    "source": [ "obj-13", 0 ]
                }
            },
            {
                "patchline": {
                    "destination": [ "obj-9", 0 ],
                    "source": [ "obj-14", 0 ]
                }
            },
            {
                "patchline": {
                    "destination": [ "obj-10", 0 ],
                    "source": [ "obj-15", 0 ]
                }
            },
            {
                "patchline": {
                    "destination": [ "obj-1", 0 ],
                    "source": [ "obj-2", 0 ]
                }
            },
            {
                "patchline": {
                    "destination": [ "obj-1", 0 ],
                    "source": [ "obj-3", 0 ]
                }
            },
            {
                "patchline": {
                    "destination": [ "obj-1", 0 ],
                    "source": [ "obj-4", 0 ]
                }
            },
            {
                "patchline": {
                    "destination": [ "obj-6", 0 ],
                    "source": [ "obj-5", 0 ]
                }
            },
            {
                "patchline": {
                    "destination": [ "obj-1", 0 ],
                    "source": [ "obj-6", 0 ]
                }
            },
            {
                "patchline": {
                    "destination": [ "obj-13", 0 ],
                    "source": [ "obj-7", 0 ]
                }
            },
            {
                "patchline": {
                    "destination": [ "obj-14", 0 ],
                    "source": [ "obj-7", 1 ]
                }
            },
            {
                "patchline": {
                    "destination": [ "obj-15", 0 ],
                    "source": [ "obj-7", 2 ]
                }
            },
            {
                "patchline": {
                    "destination": [ "obj-11", 0 ],
                    "source": [ "obj-8", 0 ]
                }
            },
            {
                "patchline": {
                    "destination": [ "obj-11", 0 ],
                    "source": [ "obj-9", 0 ]
                }
            }
        ],
        "autosave": 0
    }
}